<svg xmlns="http://www.w3.org/2000/svg" width="1024" height="1024" viewBox="0 0 1024 1024">
  <defs>
    <linearGradient id="bg" x1="0" y1="0" x2="1" y2="1">
      <stop offset="0" stop-color="#061c34"/>
      <stop offset="0.55" stop-color="#092342"/>
      <stop offset="1" stop-color="#170a32"/>
    </linearGradient>
    <linearGradient id="neon" x1="0" y1="0" x2="1" y2="1">
      <stop offset="0" stop-color="#63ecff"/>
      <stop offset="0.55" stop-color="#5df0b4"/>
      <stop offset="1" stop-color="#a679ff"/>
    </linearGradient>
    <filter id="glow" x="-30%" y="-30%" width="160%" height="160%">
      <feGaussianBlur stdDeviation="18" result="blur"/>
      <feMerge><feMergeNode in="blur"/><feMergeNode in="SourceGraphic"/></feMerge>
    </filter>
  </defs>
  <rect width="1024" height="1024" rx="225" fill="url(#bg)"/>
  <path d="M160 238H864M160 786H864" stroke="#4de4ff" stroke-opacity=".14" stroke-width="8"/>
  <circle cx="512" cy="512" r="322" fill="none" stroke="#6feaff" stroke-opacity=".13" stroke-width="14"/>
  <circle cx="512" cy="512" r="270" fill="none" stroke="#916eff" stroke-opacity=".12" stroke-width="8" stroke-dasharray="28 24"/>
  <g filter="url(#glow)">
    <path d="M356 304h94v94h-94zM574 304h94v94h-94zM356 522h94v94h-94z" fill="none" stroke="url(#neon)" stroke-width="34"/>
    <path d="M574 522h42v42h-42zM626 574h42v42h-42zM574 626h94v42h-94zM480 442h188v42H480z" fill="url(#neon)"/>
    <path d="M430 700l-50 50-106-106 50-50 38 38 76-76 68 68-76 76z" fill="url(#neon)"/>
  </g>
  <path d="M733 685l-74-74 42-42 74 74v44l-42 42h-44l44-44z" fill="#f3fbff" fill-opacity=".92"/>
</svg>